<?xml version="1.0" encoding="utf-8"?>

<!DOCTYPE svg PUBLIC "-//W3C//DTD SVG 1.1//EN" "http://www.w3.org/Graphics/SVG/1.1/DTD/svg11.dtd">
<svg version="1.1" id="Layer_1" xmlns="http://www.w3.org/2000/svg" xmlns:xlink="http://www.w3.org/1999/xlink" x="0px" y="0px"
	 viewBox="734.255 -2.877 446.3244 1267.5277" enable-background="new 734.255 -2.877 446.3244 1267.5277" xml:space="preserve">
<path d="M921.82,45.89c7.24-3.24,13.99-8.24,22.15-8.82c3.2401-0.54,6.4301,0.61,9.3,2.03c-1.4,3.46-6.09,2.35-9,3.15
	c0.5,2.36,2.92,1.42,4.6,1.2c6.6-1.34,13.41-2.81,20.14-1.49c5.82,1.13,11.63,2.6,17.09,4.95c1.37,0.48,2.3,1.64,3.2401,2.7
	c-2.01,1.52-4.23,2.7-6.31,4.1c3.56,3.54,7.42,6.77,11.5,9.71c1.89,1.56,4.25,2.98,5,5.49c-2.58,2.43-6.58,0.42-9.76,1.07
	c1.12,4.07,3.78,7.6,4.32,11.84c1.44,10.33,2.58,20.75,1.96,31.2c-0.2,3.23-1.55,6.22-2.54,9.26c1.31,0.83,2.62,1.7,3.89,2.63
	c-1.47,6.4-5.01,12.33-5.02,19.03c-0.07,7.55,1.25,15.15-0.02,22.65c-1.56,6.88-5.5,12.88-9.09,18.84
	c-0.1,6.3-1.24,13.65,3.41,18.75c4.35,4.57,9.89,7.87,15.52,10.63c20.3,9.53,41.08,18.01,61.41,27.47c3.05,1.7,6.74,1.53,9.8,3.21
	c2.9299,1.69,3.15,5.4,4.01,8.31c1.01,0.71,2.72,0.94,2.98,2.38c0.85,5.33-0.61,11,1.41,16.12c0.98,2.54,4.09,5.04,2.35,7.91
	c-0.1901,0.46-0.5701,1.37-0.76,1.83c2.59,5.8,4.59,11.81,5.4299,18.13c0.41,4.57,4.03,8.15,4.03,12.79
	c1.35,21.39,8.9301,41.65,16.54,61.47c4.02,10.64,8.41,21.14,12.21,31.87c1.53,3.84,0.25,8.05,1.24,11.97
	c1.87,4.48,7.47,5.89,9.39,10.38c2.55,5.28-0.76,10.97,0.14,16.44c1.5699,12.32,3.71,24.55,5.26,36.87
	c0.54,3.92-1.97,7.58-1.25,11.5c1.46,8.22,3.84,16.28,4.9299,24.57c0.4401,2.98-0.96,5.74-1.9099,8.47
	c-1.0901,3.02-1.1801,6.27-1.36,9.45c-0.2201,7.36-0.7101,14.7-0.9601,22.06c-0.22,7,0.6,14.12-1.08,21.01
	c-1.39,6.21-3.25,12.5-2.37,18.94c1.24,8.83,1.8199,18.32-2.05,26.63c-2.15,4.44-2.6,9.54-5.2,13.78
	c-2.58,4.53-5.98,9.14-11.17,10.78c-7.9099,2.5-15.99,5.08-24.3199,5.44c-3.5601-1.39-5.28-5.15-7.64-7.91
	c-1.54-1.52-0.47-3.38,0.63-4.74c5-6.39,10.75-12.28,14.78-19.37c2.64-5.86,1.99-12.7,0.73-18.83c-0.37-2.78-3.91-3.79-6.16-2.72
	c-2.51,5.13-2.9,11-5.15,16.23c-1.34,2.32-4.1799,3.08-5.99,4.93c0.29,2.64,1.53,5.07,1.8301,7.72c-1.05,2.37-4.01,2.69-6.02,3.94
	c-4.16,2.14-9.3,4.35-10.79,9.19c-1.0599,10,1.0601,19.97,1.1801,29.97c0.7699,12.59-2.13,24.95-4.1901,37.27
	c-5.92,32.58-13.13,64.9-19.6799,97.35c-4.2201,18.47-12.8301,35.51-21.9501,51.98c-4.89,8.38-10.71,16.22-15.16,24.86
	c-1.87,3.87-1.65,8.28-1.97,12.46c-0.98,27.37-1.52,54.84,0.79,82.16c1.21,13.34,3.22,26.6,4.69,39.92
	c1.48,11.9399,1.69,24,1.91,36.03c0.43,19.59,1.1,39.1899,2,58.77c2.85,7.0499-2.54,14.62,0.78,21.6399
	c3.18,5.51,9.72,7.63,13.84,12.26c3.38,4.3401,4.4301,9.88,6.04,15.02c0.47,1.14,0.02,2.3301-0.1901,3.49
	c-1.4299-0.24-3.25,0.03-4-1.5299c-1.8099-3.8401-2.58-8.2201-5.1899-11.64c-2.07-2.39-4.76-4.12-7.52-5.5601
	c3.2,9.23,9.6899,16.73,16.76,23.24c5.89,6.5,13.77,10.9301,19.02,18.04c5.4199,6.9399,8.53,15.3,13.4099,22.58
	c0.8201,1.2201,1.03,2.6901,1.14,4.16c-10.6799,3.01-21.7,4.64-32.61,6.62c-11.59,1.5601-23.52,4.45-35.11,1.33
	c-14.17-3.72-26.38-12.7799-36.32-23.2799c-2.49-2.14-1.47-5.5601-1.43-8.37c-0.15,0.01-0.46,0.0299-0.62,0.0399
	c-0.19,3.38-0.24,7.0701-2.11,10.02c-1.94,0.8201-3.2-1.11-4.27-2.37c-2.63-3.52-4.87-7.38-6.31-11.54
	c-1.67-4.7999-0.07-9.86,0.72-14.6499c-0.56-0.6001-1.68-1.8-2.25-2.4c0.28-1.87,2.24-2.76,3.29-4.16
	c-0.04-2.83-2.06-5.76-0.49-8.46c1.68-3.8101,5.23-7.65,3.45-12.0801c-5.35-15.96-12.71-31.35-15.87-47.97
	c-2.6-16.39-3.4901-32.98-5.16-49.47c-0.83-6.75-0.99-13.79-3.77-20.09c-5.48,6.38-7.67,14.75-11.02,22.3099
	c-2.37,5.17-4,10.88-7.68,15.3201c-5.22,4.4199-12.44,0.59-18.34,2.6c0.76,3.7999,3.03,6.99,4.74,10.41
	c3.67,7.7999,8.45,15.0199,12.45,22.6499c2.41,4.5601,3.36,9.9601,7.09,13.76c5.34,6.36,13.15,11.53,14.77,20.24
	c1.36,4.29,0.43,10.25-4.3,11.98c-9.94,0.5801-19.89-0.6699-29.77-1.6c-11.06-1.37-22.34-2.99-32.58-7.62
	c-9.46-4.73-11.92-16.1599-13.39-25.7c-1.58-8.28-0.36-17.48-5.1-24.85c-3.09-5.24-6.61-10.25-10.95-14.53
	c-1.31,2.24-2.31,4.83-4.66,6.21c-6.77-5.97-11.95-13.49-17.15-20.7999c-3.04-4.8501-7.28-9.89-6.52-15.99
	c0.58-7.4301,5.54-13.4601,6.93-20.66c3.56-4.67,7.99-8.61,12.08-12.81c2.58-2.28,5.13-6.44,9.06-4
	c5.08-5.69,9.24-12.14,13.59-18.38c4.9-7.15,9.15-14.75,12.17-22.89c3.56-9.87,8.82-18.98,13.73-28.21
	c5.79-10.44,11.57-20.88,17.74-31.1c4.85-8.01,12.44-14.13,16.34-22.74c3.13-6.65,2.38-14.17,2.42-21.29
	c-0.78-26.53-2.76-53-4.97-79.44c-2.33-24.5-3.9301-49.1-7.84-73.41c-2.5-18.04-6.11-35.9-9.17-53.85
	c-5.56,0.59-11.18-0.03-16.72,0.74c-3.2,0.31-5.52,3.64-8.85,3.01c-1.38-0.79-1.24-2.63-1.3-3.97c0.11-10.6,1.56-21.19,0.89-31.8
	c-0.68-7.97-6.85-13.6-10.95-19.95c-19.72-27.56-40.06-54.67-59.86-82.16c-4.72-6.97-10.41-13.63-12.3199-22.06
	c-4.75-19.65-7.9-39.91-6.92-60.18c0.92-19.12,3.02-38.14,5.3-57.14c0.69-4.94,1.14-9.94,2.23-14.82
	c1.32-5.66,4.78-10.47,6.95-15.79c1.71-3.74-1.14-7.37-1.21-11.13c-0.38-6.13,6.52-9.75,6.01-15.95
	c-0.36-6.78,4.79-11.92,6.53-18.13c-0.07-2.43-2.06-4.45-1.95-6.92c0.47-5.12,2.94-9.8,3.45-14.92c0.92-6.79,1.34-14.54,6.57-19.62
	c5.79-5.37,14.52-3.93,21.03-7.92c14.23-8.08,27.49-17.73,40.94-27.02c10.53-7.23,20-16.31,26.72-27.23
	c1.77-6.48,9.07-10.13,9.02-17.28c-0.18-7.95-0.44-16.13-2.82-23.76c-3.08-2.02-7.29,1.12-10.36-1.33
	c-4.3-3.09-7.21-7.72-9.69-12.31c-3.23-5.96-3.24-13-2.4-19.55c0.42-2.11,0.52-4.53,2.07-6.19c1.55-0.96,3.48-0.52,5.22-0.71
	c-2.86-10.23-8.23-20.35-6.77-31.27c2.33-10.01,9.73-17.67,16.31-25.15C904.36,56.85,912.46,50.3,921.82,45.89 M940.43,39.6
	c0.46,0.64,0.99,1.23,1.57,1.78c2.28-1.4,4.97-1.5,7.56-1.77C946.53,39.14,943.44,38.84,940.43,39.6 M859.23,432.77
	c-1.46,3.97-3.35,7.83-4.03,12.04c-0.76,4.4-0.17,8.87-0.59,13.29c-0.11,2.57-2.84,3.84-3.54,6.1c0.45,2.74,2.74,4.87,2.97,7.69
	c-0.33,2.16-1.8,3.96-2.07,6.14c1.6,3.87,3.96,7.37,6.05,10.99c4.3,6.81,8.3,13.89,13.49,20.1c0.52-3.98,0.42-8.02,1.28-11.94
	c1.6-7.56,3.75-15.32,2.4901-23.1c-1.41-8.38-4.16-16.44-6.73-24.51c-1.76-5.38-3.39-10.89-6.36-15.77
	C861.08,433.79,860.09,433.44,859.23,432.77 M1049.41,444.18c1.86,2.12,1.85,5.09,2.58,7.69c3.3201,14.04,6.53,28.1,9.46,42.23
	c1.5,7.54,1.74,15.23,2.3201,22.88c1.77,17.42,4.0499,34.78,6.13,52.16c1.4399,11.31,3.0699,22.75,6.9199,33.51
	c1.63-5.9,2.27-12.17,5.29-17.6c2.1801-4.17,5.53-8.08,5.41-13.06c0.58-9.82-6.02-18.26-6.0601-27.97
	c0.03-6.36-2.62-12.27-4.27-18.3c-3.4099-12.25-7.5599-24.31-10.36-36.72c-1.21-3.53,3.55-5.47,2.9401-8.77
	c-3.74-6.96-10.27-12.18-13.04-19.71c-1.1899-3.05,0.72-6.45-0.85-9.41c-1.71-4.07-3.78-7.99-5.9401-11.83
	C1049.67,440.9,1049.51,442.54,1049.41,444.18 M1019.47,1144.84c2.42,2.8301,6.26,4.0901,8.38,7.26c2.77,3.61,3.1801,8.5,5.99,12.04
	c-1.73-5.3-2.86-11.08-6.39-15.54C1025.23,1146.65,1022.75,1143.77,1019.47,1144.84z"/>
<path fill="#FFFFFF" stroke="#FFFFFF" stroke-width="0.0938" d="M940.43,39.6c3.01-0.76,6.1-0.46,9.13,0.01
	c-2.59,0.27-5.28,0.37-7.56,1.77C941.42,40.83,940.89,40.24,940.43,39.6z"/>
</svg>
