<?xml version="1.0" encoding="utf-8"?>

<!DOCTYPE svg PUBLIC "-//W3C//DTD SVG 1.1//EN" "http://www.w3.org/Graphics/SVG/1.1/DTD/svg11.dtd">
<svg version="1.1" id="Layer_1" xmlns="http://www.w3.org/2000/svg" xmlns:xlink="http://www.w3.org/1999/xlink" x="0px" y="0px"
	 viewBox="0 0 737.316 1648.711" enable-background="new 0 0 737.316 1648.711" xml:space="preserve">
<path d="M672.19,696.019c-7.263,0.168-16.93,9.771-21.771,1.008c7.164-14.313,11.394-13.058,49.732-42.477
	c-12.371-11.142-48.765,28.117-51.077,22.906c1.328-22.933,62.781-38.988,48.055-50.805c0,0-36.169,19.62-51.389,33.176
	c-5.306,4.727-7.332,19.917-13.542,16.456c-6.704-3.737,4.678-14.607,7.497-21.734c4.76-12.035,26.65-28.245,15.87-35.439
	c-55.588,52.62-34.819,55.945-52.9,80.678c-8.519,11.652-18.977,23.547-32.496,28.653c-6.597,2.491-18.267,2.812-21.161,0
	c-50.293-44.896-97.893-98.022-125.122-133.265c-14.793-41.201-6.701-60.177-9.328-79.273c16.535-8.481,32.48-20.439,28.782-61.926
	c-2.109-9.955-31.435-24.93-40.052-27.971c-8.395-4.276-18.78-11.431-18.78-11.431c-7.588-7.081-16.578-21.956-32.68-37.653
	c-0.682-3.03-3.929-95.722-50.305-117.632l2.728-9.609c30.793,0.912,52.339-54.949,60.176-84.805
	c0.977-1.574,5.883-13.268,3.805-16.67c0.906-4.626,1.716-9.331,2.396-14.115h0.002c0.643-4.526,0.964-8.965,1-13.308
	c7.148,1.407,14.295,3.361,21.443,5.395c8.188-23.278-6.279-53.216-23.839-71.503c-52.699-54.885-136.378-25.119-158.411,4.753
	c-22.033,29.872-42.007,76.75-42.774,106.451c-0.767,29.661-2.459,73.291,13.088,94.745c16.193,3.963,43.951-1.57,66.641-11.238
	c-3.183,19.843-2.831,17.973-3.311,19.669c-13.086,11.605-23.784,25.575-32.116,40.845c0.057-0.791,0.107-1.57,0.168-2.367
	l-0.011-0.008c-9.42,12.872-21.712,41.506-23.763,73.569c-0.646,0.827-0.975,1.25-0.975,1.25
	c-20.972,45.555-22.95,102.479-24.183,159.85c-27.097,78.207-17.591,32.583-41.565,223.941c6.219,62.928,4.324,48.026,8.724,73.108
	c-0.063,8.502-0.269,20.966,0.282,31.671l-0.265-0.109l-0.001,0c0.047,0.212,0.334,1.395,0.345,1.584l0.053,0.087
	c1.807,7.188,5.263,15.666,11.598,27.053c0,0,3.191,1.16,7.589,2.374c4.411,5.287,10.866,12.31,15.14,13.78
	c3.517,1.209,6.832-4.641,4.85-6.825c-1.289-1.42-2.48-2.829-3.604-4.231c11.368-0.056,16.656-10.755-9.609-14.752
	c-2.881-5.462-5.123-10.79-7.429-15.995c0,0,29.479,27.86,33.99,13.753c0,0-7.993-5.566-15.118-15.06
	c24.18,4.76,27.853-11.778-6.059-14.407l-3.508-4.876c-4.648-18.277,3.852-28.898,5.916-45.306
	c3.285-16.947,63.653,16.602,69.708,2.636c5.725-13.205-38.541-19.604-38.541-19.604c-9.236-18.475-22.254-22.61-35.518-26.391
	l-6.046-34.685c0,0,47.129-95.483,58.947-120.641c1.709-3.638,3.565-27.083-0.216-53.889l14.522-50.089
	c28.795,48.075,68.915,105.756,78.482,157.449c-19.01,77.885-80.69,137.268,24.148,282.853
	c-15.971,207.158-36.799,272.846-79.304,345.618c-63.948,109.474-138.023,241.245-214.25,313.442
	c70.313,23.205,199.208,20.392,294.898,17.586c15.091,0.865,36.043,0.806,70.261-0.863c0.391-0.436,0.8-0.944,1.221-1.502
	c23.495-0.823,46.962-1.648,70.103-2.342c0.002-0.006,0.003-0.012,0.005-0.017c0.357-0.011,0.716-0.022,1.073-0.033
	c77.943-256.329,65.07-626.228,59.851-750.692c-1.807-43.104-14.889-87.14-31.215-126.298c17.588,10.5,35.855,19.912,55.033,27.885
	c11.486,4.775,23.964-7.405,34.764-13.572c16.97-9.691,29.022-26.69,46.099-36.192c19.21-10.689,61.969-22.62,61.969-22.62
	C698.262,686.84,681.76,695.797,672.19,696.019z"/>
</svg>
